<svg xmlns="http://www.w3.org/2000/svg" xmlns:xlink="http://www.w3.org/1999/xlink" width="500" zoomAndPan="magnify" viewBox="0 0 375 374.999991" height="500" preserveAspectRatio="xMidYMid meet" version="1.0"><defs><g/><clipPath id="58805aaf5e"><path d="M 25.3125 0 L 350 0 L 350 375 L 25.3125 375 Z M 25.3125 0 " clip-rule="nonzero"/></clipPath><clipPath id="0c9faa6f7d"><path d="M 101.808594 159.175781 L 273.183594 159.175781 L 273.183594 187.453125 L 101.808594 187.453125 Z M 101.808594 159.175781 " clip-rule="nonzero"/></clipPath><clipPath id="7cec0a2f8a"><path d="M 124 73.101562 L 251 73.101562 L 251 153 L 124 153 Z M 124 73.101562 " clip-rule="nonzero"/></clipPath><clipPath id="8827668459"><path d="M 154.117188 83.539062 L 220.867188 83.539062 L 220.867188 142.789062 L 154.117188 142.789062 Z M 154.117188 83.539062 " clip-rule="nonzero"/></clipPath></defs><rect x="-37.5" width="450" fill="#ffffff" y="-37.499999" height="449.999989" fill-opacity="1"/><rect x="-37.5" width="450" fill="#010101" y="-37.499999" height="449.999989" fill-opacity="1"/><g clip-path="url(#58805aaf5e)"><path fill="#cca349" d="M 349.6875 132.582031 L 342.367188 132.582031 L 342.367188 98.09375 L 187.5 8.617188 L 32.632812 98.09375 L 32.632812 132.582031 L 25.3125 132.582031 L 25.3125 93.847656 L 187.5 0.195312 L 349.6875 93.847656 Z M 349.6875 281.152344 L 349.6875 242.417969 L 342.367188 242.417969 L 342.367188 276.90625 L 187.5 366.308594 L 32.632812 276.90625 L 32.632812 242.417969 L 25.3125 242.417969 L 25.3125 281.152344 L 187.5 374.800781 Z M 349.6875 281.152344 " fill-opacity="1" fill-rule="nonzero"/></g><g clip-path="url(#0c9faa6f7d)"><path fill="#ffffff" d="M 212.21875 180.257812 L 162.769531 180.257812 C 162.429688 180.257812 162.210938 179.898438 162.367188 179.597656 L 166.175781 172.269531 C 166.253906 172.117188 166.410156 172.023438 166.578125 172.023438 L 208.414062 172.023438 C 208.582031 172.023438 208.738281 172.117188 208.816406 172.269531 L 212.621094 179.597656 C 212.777344 179.898438 212.558594 180.257812 212.21875 180.257812 Z M 272.089844 181.085938 L 251.613281 160.609375 C 250.914062 159.910156 249.964844 159.519531 248.976562 159.519531 L 126.015625 159.519531 C 125.023438 159.519531 124.078125 159.910156 123.378906 160.609375 L 102.902344 181.085938 C 102.199219 181.789062 101.808594 182.734375 101.808594 183.726562 C 101.808594 185.785156 103.476562 187.453125 105.535156 187.453125 L 269.453125 187.453125 C 271.511719 187.453125 273.183594 185.785156 273.183594 183.726562 C 273.183594 182.734375 272.789062 181.789062 272.089844 181.085938 " fill-opacity="1" fill-rule="nonzero"/></g><g clip-path="url(#7cec0a2f8a)"><path fill="#ffffff" d="M 244.390625 73.144531 L 130.597656 73.144531 C 127.308594 73.144531 124.613281 75.839844 124.613281 79.132812 L 124.613281 146.691406 C 124.613281 149.984375 127.308594 152.675781 130.597656 152.675781 L 244.390625 152.675781 C 247.683594 152.675781 250.378906 149.984375 250.378906 146.691406 L 250.378906 79.132812 C 250.378906 75.839844 247.683594 73.144531 244.390625 73.144531 Z M 243.449219 80.074219 L 243.449219 145.75 L 131.542969 145.75 L 131.542969 80.074219 L 243.449219 80.074219 " fill-opacity="1" fill-rule="nonzero"/></g><g clip-path="url(#8827668459)"><path fill="#ffffff" d="M 166.441406 142.316406 C 163.945312 141.460938 163.667969 141.214844 163.132812 139.410156 C 162.632812 137.714844 162.632812 137.480469 163.136719 137.375 C 163.421875 137.316406 166.394531 134.308594 172.199219 128.203125 C 176.953125 123.203125 181.445312 118.496094 182.1875 117.734375 C 183.203125 116.699219 183.503906 116.289062 183.394531 116.09375 C 183.082031 115.546875 170.125 101.929688 169.792969 101.800781 C 169.664062 101.753906 169.328125 101.960938 169.042969 102.261719 C 168.386719 102.960938 165.167969 107.253906 163.222656 110.03125 C 162.402344 111.199219 161.640625 112.144531 161.527344 112.136719 C 161.410156 112.125 159.699219 110.824219 157.722656 109.246094 L 154.128906 106.378906 L 154.609375 105.957031 C 154.875 105.722656 155.847656 104.421875 156.773438 103.070312 C 159.460938 99.125 162.414062 95.28125 163.886719 93.804688 C 165.878906 91.8125 177.0625 83.539062 177.769531 83.539062 C 177.949219 83.539062 178.960938 84.707031 180.402344 86.585938 C 182 88.664062 182.890625 89.6875 183.21875 89.808594 C 183.484375 89.90625 183.675781 90.058594 183.644531 90.148438 C 183.613281 90.234375 181.867188 91.601562 179.769531 93.183594 C 177.667969 94.765625 175.398438 96.570312 174.726562 97.195312 C 172.960938 98.832031 172.882812 98.636719 177.085938 102.859375 C 181.304688 107.101562 191.828125 117.304688 202.261719 127.273438 L 211.269531 135.882812 C 212.042969 136.621094 212.613281 137.03125 212.863281 137.03125 C 213.234375 137.03125 213.25 137.074219 213.136719 137.921875 C 212.949219 139.335938 212.363281 140.613281 211.691406 141.0625 C 211.0625 141.488281 209.851562 141.875 208.621094 142.046875 L 207.847656 142.15625 L 197.769531 131.351562 C 192.226562 125.410156 187.636719 120.570312 187.574219 120.597656 C 187.507812 120.625 183.3125 125.34375 178.246094 131.089844 C 173.179688 136.832031 168.757812 141.8125 168.417969 142.15625 L 167.800781 142.78125 Z M 189.367188 114.226562 L 187.34375 112.308594 L 193.457031 105.890625 C 198.617188 100.472656 199.570312 99.398438 199.570312 98.980469 C 199.570312 98.554688 198.992188 97.949219 195.359375 94.5625 C 193.039062 92.402344 191.183594 90.566406 191.238281 90.484375 C 191.289062 90.398438 191.484375 90.332031 191.675781 90.332031 C 191.890625 90.332031 193.164062 89.246094 195.050781 87.445312 C 196.714844 85.855469 198.160156 84.558594 198.257812 84.558594 C 198.359375 84.558594 200.167969 86.238281 202.273438 88.292969 C 206.273438 92.191406 206.554688 92.386719 207.183594 91.691406 C 207.351562 91.503906 207.613281 91.351562 207.761719 91.351562 C 207.910156 91.355469 208.566406 91.808594 209.21875 92.363281 C 209.976562 93.007812 210.585938 93.390625 210.90625 93.421875 L 211.410156 93.472656 L 210.84375 94.117188 C 210.53125 94.46875 210.25 94.984375 210.21875 95.257812 C 210.167969 95.695312 210.324219 95.894531 211.539062 96.949219 C 212.300781 97.605469 213.003906 98.144531 213.105469 98.144531 C 213.277344 98.148438 220.851562 112.757812 220.75 112.890625 C 220.726562 112.921875 217.816406 111.402344 214.285156 109.519531 L 207.863281 106.089844 L 205.90625 104.15625 C 204.832031 103.089844 203.902344 102.21875 203.84375 102.21875 C 203.785156 102.21875 200.972656 105.351562 197.589844 109.183594 C 194.210938 113.011719 191.433594 116.144531 191.421875 116.144531 C 191.40625 116.144531 190.484375 115.28125 189.367188 114.226562 Z M 189.367188 114.226562 " fill-opacity="1" fill-rule="nonzero"/></g><g fill="#ffffff" fill-opacity="1"><g transform="translate(72.614595, 234.031154)"><g><path d="M 27.96875 -30.4375 L 27.96875 -22.328125 L 23.28125 -22.328125 L 23.03125 -25.734375 L 17.4375 -25.734375 L 17.4375 -4.28125 L 20.703125 -3.65625 L 20.703125 0 L 8.0625 0 L 8.0625 -3.65625 L 11.328125 -4.28125 L 11.328125 -25.734375 L 5.75 -25.734375 L 5.5 -22.328125 L 0.84375 -22.328125 L 0.84375 -30.4375 Z M 27.96875 -30.4375 "/></g></g></g><g fill="#ffffff" fill-opacity="1"><g transform="translate(106.864681, 234.031154)"><g><path d="M 1.171875 -26.765625 L 1.171875 -30.4375 L 13.78125 -30.4375 L 13.78125 -26.765625 L 10.515625 -26.125 L 10.515625 -17.34375 L 22.9375 -17.34375 L 22.9375 -26.125 L 19.671875 -26.765625 L 19.671875 -30.4375 L 32.28125 -30.4375 L 32.28125 -26.765625 L 29.015625 -26.125 L 29.015625 -4.28125 L 32.28125 -3.65625 L 32.28125 0 L 19.671875 0 L 19.671875 -3.65625 L 22.9375 -4.28125 L 22.9375 -12.640625 L 10.515625 -12.640625 L 10.515625 -4.28125 L 13.78125 -3.65625 L 13.78125 0 L 1.171875 0 L 1.171875 -3.65625 L 4.40625 -4.28125 L 4.40625 -26.125 Z M 1.171875 -26.765625 "/></g></g></g><g fill="#ffffff" fill-opacity="1"><g transform="translate(145.794664, 234.031154)"><g><path d="M 20.828125 -13.375 L 10.515625 -13.375 L 10.515625 -4.6875 L 20.34375 -4.6875 L 20.609375 -8.3125 L 25.25 -8.3125 L 25.25 0 L 1.171875 0 L 1.171875 -3.65625 L 4.40625 -4.28125 L 4.40625 -26.125 L 1.171875 -26.765625 L 1.171875 -30.4375 L 25.203125 -30.4375 L 25.203125 -22.09375 L 20.53125 -22.09375 L 20.25 -25.734375 L 10.515625 -25.734375 L 10.515625 -18.078125 L 20.828125 -18.078125 Z M 20.828125 -13.375 "/></g></g></g><g fill="#ffffff" fill-opacity="1"><g transform="translate(178.603177, 234.031154)"><g/></g></g><g fill="#ffffff" fill-opacity="1"><g transform="translate(194.572408, 234.031154)"><g><path d="M 40.59375 -26.765625 L 38.09375 -26.4375 L 31.921875 0 L 26.25 0 L 20.671875 -20.09375 L 20.546875 -20.09375 L 14.96875 0 L 9.296875 0 L 3.09375 -26.4375 L 0.609375 -26.765625 L 0.609375 -30.4375 L 11.8125 -30.4375 L 11.8125 -26.765625 L 9.03125 -26.28125 L 12.515625 -9.59375 L 12.640625 -9.578125 L 18.359375 -30.4375 L 22.84375 -30.4375 L 28.59375 -9.578125 L 28.71875 -9.59375 L 32.1875 -26.28125 L 29.40625 -26.765625 L 29.40625 -30.4375 L 40.59375 -30.4375 Z M 40.59375 -26.765625 "/></g></g></g><g fill="#ffffff" fill-opacity="1"><g transform="translate(241.25347, 234.031154)"><g><path d="M 20.828125 -13.375 L 10.515625 -13.375 L 10.515625 -4.6875 L 20.34375 -4.6875 L 20.609375 -8.3125 L 25.25 -8.3125 L 25.25 0 L 1.171875 0 L 1.171875 -3.65625 L 4.40625 -4.28125 L 4.40625 -26.125 L 1.171875 -26.765625 L 1.171875 -30.4375 L 25.203125 -30.4375 L 25.203125 -22.09375 L 20.53125 -22.09375 L 20.25 -25.734375 L 10.515625 -25.734375 L 10.515625 -18.078125 L 20.828125 -18.078125 Z M 20.828125 -13.375 "/></g></g></g><g fill="#ffffff" fill-opacity="1"><g transform="translate(274.061989, 234.031154)"><g><path d="M 14.703125 -30.4375 C 18.273438 -30.4375 21.066406 -29.738281 23.078125 -28.34375 C 25.085938 -26.945312 26.09375 -24.863281 26.09375 -22.09375 C 26.09375 -20.6875 25.71875 -19.425781 24.96875 -18.3125 C 24.226562 -17.207031 23.144531 -16.378906 21.71875 -15.828125 C 23.539062 -15.429688 24.910156 -14.59375 25.828125 -13.3125 C 26.742188 -12.03125 27.203125 -10.546875 27.203125 -8.859375 C 27.203125 -5.953125 26.238281 -3.75 24.3125 -2.25 C 22.382812 -0.75 19.660156 0 16.140625 0 L 1.171875 0 L 1.171875 -3.65625 L 4.40625 -4.28125 L 4.40625 -26.125 L 1.171875 -26.765625 L 1.171875 -30.4375 Z M 10.515625 -13.46875 L 10.515625 -4.6875 L 16.140625 -4.6875 C 17.753906 -4.6875 18.984375 -5.035156 19.828125 -5.734375 C 20.679688 -6.441406 21.109375 -7.484375 21.109375 -8.859375 C 21.109375 -10.347656 20.742188 -11.488281 20.015625 -12.28125 C 19.296875 -13.070312 18.15625 -13.46875 16.59375 -13.46875 Z M 10.515625 -17.6875 L 14.90625 -17.6875 C 16.53125 -17.6875 17.78125 -18.019531 18.65625 -18.6875 C 19.539062 -19.351562 19.984375 -20.328125 19.984375 -21.609375 C 19.984375 -23.023438 19.539062 -24.066406 18.65625 -24.734375 C 17.769531 -25.398438 16.453125 -25.734375 14.703125 -25.734375 L 10.515625 -25.734375 Z M 10.515625 -17.6875 "/></g></g></g><g fill="#ffffff" fill-opacity="1"><g transform="translate(78.261062, 273.673993)"><g><path d="M 13.625 -3.28125 L 5.828125 -3.28125 L 4.53125 0 L -0.125 0 L 7.5625 -17.828125 L 12.21875 -17.828125 L 19.734375 0 L 14.90625 0 Z M 12.296875 -6.71875 L 9.75 -13.3125 L 7.15625 -6.71875 Z M 12.296875 -6.71875 "/></g></g></g><g fill="#ffffff" fill-opacity="1"><g transform="translate(107.875863, 273.673993)"><g><path d="M 12.53125 0 L 9.875 -5.015625 L 6.3125 -5.015625 L 6.3125 0 L 1.78125 0 L 1.78125 -17.828125 L 9.75 -17.828125 C 12.113281 -17.828125 13.941406 -17.285156 15.234375 -16.203125 C 16.523438 -15.128906 17.171875 -13.597656 17.171875 -11.609375 C 17.171875 -8.859375 16.09375 -6.953125 13.9375 -5.890625 L 17.671875 0 Z M 6.3125 -8.578125 L 9.75 -8.578125 C 10.738281 -8.578125 11.503906 -8.820312 12.046875 -9.3125 C 12.585938 -9.8125 12.859375 -10.53125 12.859375 -11.46875 C 12.859375 -12.382812 12.585938 -13.078125 12.046875 -13.546875 C 11.503906 -14.023438 10.738281 -14.265625 9.75 -14.265625 L 6.3125 -14.265625 Z M 6.3125 -8.578125 "/></g></g></g><g fill="#ffffff" fill-opacity="1"><g transform="translate(136.319381, 273.673993)"><g><path d="M 15.40625 -14.1875 L 10.03125 -14.1875 L 10.03125 0 L 5.5 0 L 5.5 -14.1875 L 0.171875 -14.1875 L 0.171875 -17.859375 L 15.40625 -17.859375 Z M 15.40625 -14.1875 "/></g></g></g><g fill="#ffffff" fill-opacity="1"><g transform="translate(161.885577, 273.673993)"><g><path d="M 6.3125 0 L 1.78125 0 L 1.78125 -17.828125 L 6.3125 -17.828125 Z M 6.3125 0 "/></g></g></g><g fill="#ffffff" fill-opacity="1"><g transform="translate(179.991116, 273.673993)"><g><path d="M 15 -14.265625 L 6.3125 -14.265625 L 6.3125 -10.140625 L 14.3125 -10.140625 L 14.3125 -6.578125 L 6.3125 -6.578125 L 6.3125 0 L 1.78125 0 L 1.78125 -17.828125 L 15 -17.828125 Z M 15 -14.265625 "/></g></g></g><g fill="#ffffff" fill-opacity="1"><g transform="translate(205.37906, 273.673993)"><g><path d="M 6.3125 0 L 1.78125 0 L 1.78125 -17.828125 L 6.3125 -17.828125 Z M 6.3125 0 "/></g></g></g><g fill="#ffffff" fill-opacity="1"><g transform="translate(223.484599, 273.673993)"><g><path d="M 10.140625 -17.984375 C 11.460938 -17.984375 12.765625 -17.707031 14.046875 -17.15625 C 15.328125 -16.613281 16.414062 -15.882812 17.3125 -14.96875 L 14.703125 -11.875 C 14.117188 -12.582031 13.421875 -13.144531 12.609375 -13.5625 C 11.804688 -13.976562 11.007812 -14.1875 10.21875 -14.1875 C 8.800781 -14.1875 7.617188 -13.6875 6.671875 -12.6875 C 5.722656 -11.695312 5.25 -10.472656 5.25 -9.015625 C 5.25 -7.523438 5.722656 -6.273438 6.671875 -5.265625 C 7.617188 -4.265625 8.800781 -3.765625 10.21875 -3.765625 C 10.957031 -3.765625 11.726562 -3.953125 12.53125 -4.328125 C 13.34375 -4.703125 14.066406 -5.210938 14.703125 -5.859375 L 17.34375 -3.0625 C 16.375 -2.070312 15.226562 -1.28125 13.90625 -0.6875 C 12.59375 -0.09375 11.285156 0.203125 9.984375 0.203125 C 7.296875 0.203125 5.0625 -0.671875 3.28125 -2.421875 C 1.5 -4.171875 0.609375 -6.351562 0.609375 -8.96875 C 0.609375 -11.53125 1.515625 -13.671875 3.328125 -15.390625 C 5.148438 -17.117188 7.421875 -17.984375 10.140625 -17.984375 Z M 10.140625 -17.984375 "/></g></g></g><g fill="#ffffff" fill-opacity="1"><g transform="translate(251.113289, 273.673993)"><g><path d="M 15.734375 -14.265625 L 6.3125 -14.265625 L 6.3125 -10.71875 L 14.828125 -10.71875 L 14.828125 -7.15625 L 6.3125 -7.15625 L 6.3125 -3.5625 L 16.015625 -3.5625 L 16.015625 0 L 1.78125 0 L 1.78125 -17.828125 L 15.734375 -17.828125 Z M 15.734375 -14.265625 "/></g></g></g><g fill="#ffffff" fill-opacity="1"><g transform="translate(278.283655, 273.673993)"><g><path d="M 12.53125 0 L 9.875 -5.015625 L 6.3125 -5.015625 L 6.3125 0 L 1.78125 0 L 1.78125 -17.828125 L 9.75 -17.828125 C 12.113281 -17.828125 13.941406 -17.285156 15.234375 -16.203125 C 16.523438 -15.128906 17.171875 -13.597656 17.171875 -11.609375 C 17.171875 -8.859375 16.09375 -6.953125 13.9375 -5.890625 L 17.671875 0 Z M 6.3125 -8.578125 L 9.75 -8.578125 C 10.738281 -8.578125 11.503906 -8.820312 12.046875 -9.3125 C 12.585938 -9.8125 12.859375 -10.53125 12.859375 -11.46875 C 12.859375 -12.382812 12.585938 -13.078125 12.046875 -13.546875 C 11.503906 -14.023438 10.738281 -14.265625 9.75 -14.265625 L 6.3125 -14.265625 Z M 6.3125 -8.578125 "/></g></g></g></svg>