<svg xmlns="http://www.w3.org/2000/svg" xmlns:xlink="http://www.w3.org/1999/xlink" width="500" zoomAndPan="magnify" viewBox="0 0 375 374.999991" height="500" preserveAspectRatio="xMidYMid meet" version="1.0"><defs><g/><clipPath id="dd05c28027"><path d="M 101.808594 159.175781 L 273.183594 159.175781 L 273.183594 187.453125 L 101.808594 187.453125 Z M 101.808594 159.175781 " clip-rule="nonzero"/></clipPath><clipPath id="c5ac4131d8"><path d="M 124 73.101562 L 251 73.101562 L 251 153 L 124 153 Z M 124 73.101562 " clip-rule="nonzero"/></clipPath><clipPath id="1e6992229d"><path d="M 154.117188 83.539062 L 220.867188 83.539062 L 220.867188 142.789062 L 154.117188 142.789062 Z M 154.117188 83.539062 " clip-rule="nonzero"/></clipPath><clipPath id="78a13d8505"><path d="M 25.3125 0 L 350 0 L 350 375 L 25.3125 375 Z M 25.3125 0 " clip-rule="nonzero"/></clipPath></defs><rect x="-37.5" width="450" fill="#ffffff" y="-37.499999" height="449.999989" fill-opacity="1"/><rect x="-37.5" width="450" fill="#ffffff" y="-37.499999" height="449.999989" fill-opacity="1"/><g clip-path="url(#dd05c28027)"><path fill="#010101" d="M 212.21875 180.257812 L 162.769531 180.257812 C 162.429688 180.257812 162.210938 179.898438 162.367188 179.597656 L 166.175781 172.269531 C 166.253906 172.117188 166.410156 172.023438 166.578125 172.023438 L 208.414062 172.023438 C 208.582031 172.023438 208.738281 172.117188 208.816406 172.269531 L 212.621094 179.597656 C 212.777344 179.898438 212.558594 180.257812 212.21875 180.257812 Z M 272.089844 181.085938 L 251.613281 160.609375 C 250.914062 159.910156 249.964844 159.519531 248.976562 159.519531 L 126.015625 159.519531 C 125.023438 159.519531 124.078125 159.910156 123.378906 160.609375 L 102.902344 181.085938 C 102.199219 181.789062 101.808594 182.734375 101.808594 183.726562 C 101.808594 185.785156 103.476562 187.453125 105.535156 187.453125 L 269.453125 187.453125 C 271.511719 187.453125 273.183594 185.785156 273.183594 183.726562 C 273.183594 182.734375 272.789062 181.789062 272.089844 181.085938 " fill-opacity="1" fill-rule="nonzero"/></g><g clip-path="url(#c5ac4131d8)"><path fill="#010101" d="M 244.390625 73.144531 L 130.597656 73.144531 C 127.308594 73.144531 124.613281 75.839844 124.613281 79.132812 L 124.613281 146.691406 C 124.613281 149.984375 127.308594 152.675781 130.597656 152.675781 L 244.390625 152.675781 C 247.683594 152.675781 250.378906 149.984375 250.378906 146.691406 L 250.378906 79.132812 C 250.378906 75.839844 247.683594 73.144531 244.390625 73.144531 Z M 243.449219 80.074219 L 243.449219 145.75 L 131.542969 145.75 L 131.542969 80.074219 L 243.449219 80.074219 " fill-opacity="1" fill-rule="nonzero"/></g><g clip-path="url(#1e6992229d)"><path fill="#010101" d="M 166.445312 142.304688 C 163.945312 141.449219 163.667969 141.203125 163.132812 139.398438 C 162.632812 137.707031 162.632812 137.46875 163.136719 137.363281 C 163.425781 137.304688 166.394531 134.300781 172.203125 128.191406 C 176.957031 123.195312 181.449219 118.488281 182.195312 117.726562 C 183.207031 116.691406 183.507812 116.28125 183.398438 116.089844 C 183.089844 115.542969 170.128906 101.925781 169.796875 101.796875 C 169.667969 101.75 169.332031 101.957031 169.042969 102.257812 C 168.386719 102.957031 165.167969 107.25 163.222656 110.027344 C 162.402344 111.191406 161.640625 112.140625 161.527344 112.128906 C 161.414062 112.117188 159.703125 110.820312 157.722656 109.242188 L 154.128906 106.375 L 154.609375 105.949219 C 154.875 105.71875 155.847656 104.417969 156.773438 103.066406 C 159.460938 99.125 162.417969 95.277344 163.890625 93.804688 C 165.882812 91.808594 177.066406 83.539062 177.773438 83.539062 C 177.953125 83.539062 178.964844 84.707031 180.40625 86.585938 C 182.003906 88.664062 182.894531 89.683594 183.226562 89.804688 C 183.492188 89.902344 183.683594 90.058594 183.648438 90.144531 C 183.617188 90.234375 181.875 91.601562 179.773438 93.183594 C 177.671875 94.765625 175.402344 96.570312 174.730469 97.191406 C 172.964844 98.828125 172.882812 98.632812 177.089844 102.855469 C 181.3125 107.097656 191.835938 117.300781 202.269531 127.265625 L 211.28125 135.875 C 212.050781 136.613281 212.621094 137.023438 212.871094 137.023438 C 213.246094 137.023438 213.257812 137.0625 213.144531 137.910156 C 212.957031 139.328125 212.371094 140.601562 211.703125 141.054688 C 211.074219 141.476562 209.863281 141.863281 208.628906 142.035156 L 207.859375 142.144531 L 197.777344 131.34375 C 192.230469 125.402344 187.644531 120.566406 187.578125 120.589844 C 187.515625 120.617188 183.316406 125.335938 178.25 131.078125 C 173.183594 136.824219 168.757812 141.800781 168.417969 142.144531 L 167.800781 142.769531 Z M 189.375 114.21875 L 187.347656 112.304688 L 193.464844 105.886719 C 198.625 100.472656 199.578125 99.394531 199.578125 98.976562 C 199.578125 98.554688 199 97.945312 195.363281 94.558594 C 193.046875 92.402344 191.191406 90.566406 191.242188 90.484375 C 191.292969 90.398438 191.492188 90.332031 191.683594 90.332031 C 191.898438 90.332031 193.167969 89.242188 195.058594 87.445312 C 196.722656 85.855469 198.167969 84.558594 198.265625 84.558594 C 198.367188 84.558594 200.175781 86.238281 202.285156 88.292969 C 206.285156 92.191406 206.5625 92.382812 207.191406 91.6875 C 207.359375 91.503906 207.621094 91.351562 207.769531 91.351562 C 207.917969 91.351562 208.574219 91.808594 209.226562 92.363281 C 209.984375 93.007812 210.597656 93.390625 210.917969 93.421875 L 211.417969 93.472656 L 210.851562 94.113281 C 210.542969 94.46875 210.261719 94.980469 210.230469 95.253906 C 210.179688 95.695312 210.335938 95.894531 211.550781 96.945312 C 212.308594 97.601562 213.015625 98.140625 213.117188 98.140625 C 213.285156 98.144531 220.863281 112.75 220.761719 112.882812 C 220.738281 112.914062 217.828125 111.398438 214.296875 109.511719 L 207.871094 106.085938 L 205.917969 104.152344 C 204.839844 103.085938 203.914062 102.214844 203.855469 102.214844 C 203.796875 102.214844 200.980469 105.347656 197.597656 109.175781 C 194.21875 113.003906 191.441406 116.136719 191.425781 116.136719 C 191.414062 116.136719 190.488281 115.273438 189.375 114.21875 Z M 189.375 114.21875 " fill-opacity="1" fill-rule="nonzero"/></g><g clip-path="url(#78a13d8505)"><path fill="#cca349" d="M 349.6875 132.582031 L 342.367188 132.582031 L 342.367188 98.09375 L 187.5 8.617188 L 32.632812 98.09375 L 32.632812 132.582031 L 25.3125 132.582031 L 25.3125 93.847656 L 187.5 0.195312 L 349.6875 93.847656 Z M 349.6875 281.152344 L 349.6875 242.417969 L 342.367188 242.417969 L 342.367188 276.90625 L 187.5 366.308594 L 32.632812 276.90625 L 32.632812 242.417969 L 25.3125 242.417969 L 25.3125 281.152344 L 187.5 374.800781 Z M 349.6875 281.152344 " fill-opacity="1" fill-rule="nonzero"/></g><g fill="#010101" fill-opacity="1"><g transform="translate(72.614595, 234.031183)"><g><path d="M 27.96875 -30.4375 L 27.96875 -22.328125 L 23.28125 -22.328125 L 23.03125 -25.734375 L 17.4375 -25.734375 L 17.4375 -4.28125 L 20.703125 -3.65625 L 20.703125 0 L 8.0625 0 L 8.0625 -3.65625 L 11.328125 -4.28125 L 11.328125 -25.734375 L 5.75 -25.734375 L 5.5 -22.328125 L 0.84375 -22.328125 L 0.84375 -30.4375 Z M 27.96875 -30.4375 "/></g></g></g><g fill="#010101" fill-opacity="1"><g transform="translate(106.864681, 234.031183)"><g><path d="M 1.171875 -26.765625 L 1.171875 -30.4375 L 13.78125 -30.4375 L 13.78125 -26.765625 L 10.515625 -26.125 L 10.515625 -17.34375 L 22.9375 -17.34375 L 22.9375 -26.125 L 19.671875 -26.765625 L 19.671875 -30.4375 L 32.28125 -30.4375 L 32.28125 -26.765625 L 29.015625 -26.125 L 29.015625 -4.28125 L 32.28125 -3.65625 L 32.28125 0 L 19.671875 0 L 19.671875 -3.65625 L 22.9375 -4.28125 L 22.9375 -12.640625 L 10.515625 -12.640625 L 10.515625 -4.28125 L 13.78125 -3.65625 L 13.78125 0 L 1.171875 0 L 1.171875 -3.65625 L 4.40625 -4.28125 L 4.40625 -26.125 Z M 1.171875 -26.765625 "/></g></g></g><g fill="#010101" fill-opacity="1"><g transform="translate(145.794664, 234.031183)"><g><path d="M 20.828125 -13.375 L 10.515625 -13.375 L 10.515625 -4.6875 L 20.34375 -4.6875 L 20.609375 -8.3125 L 25.25 -8.3125 L 25.25 0 L 1.171875 0 L 1.171875 -3.65625 L 4.40625 -4.28125 L 4.40625 -26.125 L 1.171875 -26.765625 L 1.171875 -30.4375 L 25.203125 -30.4375 L 25.203125 -22.09375 L 20.53125 -22.09375 L 20.25 -25.734375 L 10.515625 -25.734375 L 10.515625 -18.078125 L 20.828125 -18.078125 Z M 20.828125 -13.375 "/></g></g></g><g fill="#010101" fill-opacity="1"><g transform="translate(178.603177, 234.031183)"><g/></g></g><g fill="#010101" fill-opacity="1"><g transform="translate(194.572408, 234.031183)"><g><path d="M 40.59375 -26.765625 L 38.09375 -26.4375 L 31.921875 0 L 26.25 0 L 20.671875 -20.09375 L 20.546875 -20.09375 L 14.96875 0 L 9.296875 0 L 3.09375 -26.4375 L 0.609375 -26.765625 L 0.609375 -30.4375 L 11.8125 -30.4375 L 11.8125 -26.765625 L 9.03125 -26.28125 L 12.515625 -9.59375 L 12.640625 -9.578125 L 18.359375 -30.4375 L 22.84375 -30.4375 L 28.59375 -9.578125 L 28.71875 -9.59375 L 32.1875 -26.28125 L 29.40625 -26.765625 L 29.40625 -30.4375 L 40.59375 -30.4375 Z M 40.59375 -26.765625 "/></g></g></g><g fill="#010101" fill-opacity="1"><g transform="translate(241.25347, 234.031183)"><g><path d="M 20.828125 -13.375 L 10.515625 -13.375 L 10.515625 -4.6875 L 20.34375 -4.6875 L 20.609375 -8.3125 L 25.25 -8.3125 L 25.25 0 L 1.171875 0 L 1.171875 -3.65625 L 4.40625 -4.28125 L 4.40625 -26.125 L 1.171875 -26.765625 L 1.171875 -30.4375 L 25.203125 -30.4375 L 25.203125 -22.09375 L 20.53125 -22.09375 L 20.25 -25.734375 L 10.515625 -25.734375 L 10.515625 -18.078125 L 20.828125 -18.078125 Z M 20.828125 -13.375 "/></g></g></g><g fill="#010101" fill-opacity="1"><g transform="translate(274.061989, 234.031183)"><g><path d="M 14.703125 -30.4375 C 18.273438 -30.4375 21.066406 -29.738281 23.078125 -28.34375 C 25.085938 -26.945312 26.09375 -24.863281 26.09375 -22.09375 C 26.09375 -20.6875 25.71875 -19.425781 24.96875 -18.3125 C 24.226562 -17.207031 23.144531 -16.378906 21.71875 -15.828125 C 23.539062 -15.429688 24.910156 -14.59375 25.828125 -13.3125 C 26.742188 -12.03125 27.203125 -10.546875 27.203125 -8.859375 C 27.203125 -5.953125 26.238281 -3.75 24.3125 -2.25 C 22.382812 -0.75 19.660156 0 16.140625 0 L 1.171875 0 L 1.171875 -3.65625 L 4.40625 -4.28125 L 4.40625 -26.125 L 1.171875 -26.765625 L 1.171875 -30.4375 Z M 10.515625 -13.46875 L 10.515625 -4.6875 L 16.140625 -4.6875 C 17.753906 -4.6875 18.984375 -5.035156 19.828125 -5.734375 C 20.679688 -6.441406 21.109375 -7.484375 21.109375 -8.859375 C 21.109375 -10.347656 20.742188 -11.488281 20.015625 -12.28125 C 19.296875 -13.070312 18.15625 -13.46875 16.59375 -13.46875 Z M 10.515625 -17.6875 L 14.90625 -17.6875 C 16.53125 -17.6875 17.78125 -18.019531 18.65625 -18.6875 C 19.539062 -19.351562 19.984375 -20.328125 19.984375 -21.609375 C 19.984375 -23.023438 19.539062 -24.066406 18.65625 -24.734375 C 17.769531 -25.398438 16.453125 -25.734375 14.703125 -25.734375 L 10.515625 -25.734375 Z M 10.515625 -17.6875 "/></g></g></g><g fill="#010101" fill-opacity="1"><g transform="translate(78.261062, 273.673964)"><g><path d="M 13.625 -3.28125 L 5.828125 -3.28125 L 4.53125 0 L -0.125 0 L 7.5625 -17.828125 L 12.21875 -17.828125 L 19.734375 0 L 14.90625 0 Z M 12.296875 -6.71875 L 9.75 -13.3125 L 7.15625 -6.71875 Z M 12.296875 -6.71875 "/></g></g></g><g fill="#010101" fill-opacity="1"><g transform="translate(107.875863, 273.673964)"><g><path d="M 12.53125 0 L 9.875 -5.015625 L 6.3125 -5.015625 L 6.3125 0 L 1.78125 0 L 1.78125 -17.828125 L 9.75 -17.828125 C 12.113281 -17.828125 13.941406 -17.285156 15.234375 -16.203125 C 16.523438 -15.128906 17.171875 -13.597656 17.171875 -11.609375 C 17.171875 -8.859375 16.09375 -6.953125 13.9375 -5.890625 L 17.671875 0 Z M 6.3125 -8.578125 L 9.75 -8.578125 C 10.738281 -8.578125 11.503906 -8.820312 12.046875 -9.3125 C 12.585938 -9.8125 12.859375 -10.53125 12.859375 -11.46875 C 12.859375 -12.382812 12.585938 -13.078125 12.046875 -13.546875 C 11.503906 -14.023438 10.738281 -14.265625 9.75 -14.265625 L 6.3125 -14.265625 Z M 6.3125 -8.578125 "/></g></g></g><g fill="#010101" fill-opacity="1"><g transform="translate(136.319381, 273.673964)"><g><path d="M 15.40625 -14.1875 L 10.03125 -14.1875 L 10.03125 0 L 5.5 0 L 5.5 -14.1875 L 0.171875 -14.1875 L 0.171875 -17.859375 L 15.40625 -17.859375 Z M 15.40625 -14.1875 "/></g></g></g><g fill="#010101" fill-opacity="1"><g transform="translate(161.885577, 273.673964)"><g><path d="M 6.3125 0 L 1.78125 0 L 1.78125 -17.828125 L 6.3125 -17.828125 Z M 6.3125 0 "/></g></g></g><g fill="#010101" fill-opacity="1"><g transform="translate(179.991116, 273.673964)"><g><path d="M 15 -14.265625 L 6.3125 -14.265625 L 6.3125 -10.140625 L 14.3125 -10.140625 L 14.3125 -6.578125 L 6.3125 -6.578125 L 6.3125 0 L 1.78125 0 L 1.78125 -17.828125 L 15 -17.828125 Z M 15 -14.265625 "/></g></g></g><g fill="#010101" fill-opacity="1"><g transform="translate(205.37906, 273.673964)"><g><path d="M 6.3125 0 L 1.78125 0 L 1.78125 -17.828125 L 6.3125 -17.828125 Z M 6.3125 0 "/></g></g></g><g fill="#010101" fill-opacity="1"><g transform="translate(223.484599, 273.673964)"><g><path d="M 10.140625 -17.984375 C 11.460938 -17.984375 12.765625 -17.707031 14.046875 -17.15625 C 15.328125 -16.613281 16.414062 -15.882812 17.3125 -14.96875 L 14.703125 -11.875 C 14.117188 -12.582031 13.421875 -13.144531 12.609375 -13.5625 C 11.804688 -13.976562 11.007812 -14.1875 10.21875 -14.1875 C 8.800781 -14.1875 7.617188 -13.6875 6.671875 -12.6875 C 5.722656 -11.695312 5.25 -10.472656 5.25 -9.015625 C 5.25 -7.523438 5.722656 -6.273438 6.671875 -5.265625 C 7.617188 -4.265625 8.800781 -3.765625 10.21875 -3.765625 C 10.957031 -3.765625 11.726562 -3.953125 12.53125 -4.328125 C 13.34375 -4.703125 14.066406 -5.210938 14.703125 -5.859375 L 17.34375 -3.0625 C 16.375 -2.070312 15.226562 -1.28125 13.90625 -0.6875 C 12.59375 -0.09375 11.285156 0.203125 9.984375 0.203125 C 7.296875 0.203125 5.0625 -0.671875 3.28125 -2.421875 C 1.5 -4.171875 0.609375 -6.351562 0.609375 -8.96875 C 0.609375 -11.53125 1.515625 -13.671875 3.328125 -15.390625 C 5.148438 -17.117188 7.421875 -17.984375 10.140625 -17.984375 Z M 10.140625 -17.984375 "/></g></g></g><g fill="#010101" fill-opacity="1"><g transform="translate(251.113289, 273.673964)"><g><path d="M 15.734375 -14.265625 L 6.3125 -14.265625 L 6.3125 -10.71875 L 14.828125 -10.71875 L 14.828125 -7.15625 L 6.3125 -7.15625 L 6.3125 -3.5625 L 16.015625 -3.5625 L 16.015625 0 L 1.78125 0 L 1.78125 -17.828125 L 15.734375 -17.828125 Z M 15.734375 -14.265625 "/></g></g></g><g fill="#010101" fill-opacity="1"><g transform="translate(278.283655, 273.673964)"><g><path d="M 12.53125 0 L 9.875 -5.015625 L 6.3125 -5.015625 L 6.3125 0 L 1.78125 0 L 1.78125 -17.828125 L 9.75 -17.828125 C 12.113281 -17.828125 13.941406 -17.285156 15.234375 -16.203125 C 16.523438 -15.128906 17.171875 -13.597656 17.171875 -11.609375 C 17.171875 -8.859375 16.09375 -6.953125 13.9375 -5.890625 L 17.671875 0 Z M 6.3125 -8.578125 L 9.75 -8.578125 C 10.738281 -8.578125 11.503906 -8.820312 12.046875 -9.3125 C 12.585938 -9.8125 12.859375 -10.53125 12.859375 -11.46875 C 12.859375 -12.382812 12.585938 -13.078125 12.046875 -13.546875 C 11.503906 -14.023438 10.738281 -14.265625 9.75 -14.265625 L 6.3125 -14.265625 Z M 6.3125 -8.578125 "/></g></g></g></svg>